<svg xmlns="http://www.w3.org/2000/svg" viewBox="0 0 1920 45">
  <g id="Layer_2" data-name="Layer 2">
    <g id="one">
      <polygon points="1920 45 1920 15.97 1882.58 15.97 1777.85 12.02 1738.58 20.24 1732.04 15.97 1679.67 10.29 1657.42 12.45 1659.16 17.21 1584.98 12.88 1494.65 19.8 1483.74 22.4 1487.73 11.63 1468.91 8.99 1425.27 15.97 1396.33 15.97 1345.74 21.1 1330.63 22.63 1331.57 30.48 1328.67 24.12 1223.84 15.97 1199.46 10.23 1175.69 7.82 1152.53 7.82 1131.81 4.19 1115.96 6.61 1097.07 8.42 1025.15 7.82 1025.15 21.1 1005.04 5.4 970.7 3.8 970.97 5.86 969.93 3.77 934.72 2.13 933.28 2.58 928.8 1.86 888.85 0 888.4 0.85 895.33 16.88 866.68 14.46 842.91 8.42 792.94 8.42 789.32 11.36 788.51 11.26 788.21 8.42 709.44 8.42 686.28 15.06 667.54 21.56 659.78 22.2 623.5 31.98 628.99 24.12 611.92 12.65 604.61 22.92 456.59 20.11 449.72 22.24 434.64 19.69 318.15 17.48 310.23 26.54 313.27 17.48 298.04 8.42 293.77 19.29 284.02 12.04 276.1 14.46 268.17 12.04 233.43 12.04 222.46 24.12 215.15 24.12 203.57 24.12 191.38 26.54 170.66 24.12 136.37 22.01 96.37 26.09 69.73 19.98 63.01 18.84 57.52 27.45 57.52 22.46 30.55 24.95 0 24.73 0 45 1920 45" style="fill: #010b09"/>
    </g>
  </g>
</svg>
